<?xml version="1.0" standalone="no"?>
<!DOCTYPE svg PUBLIC "-//W3C//DTD SVG 20010904//EN"
 "http://www.w3.org/TR/2001/REC-SVG-20010904/DTD/svg10.dtd">
<svg version="1.0" xmlns="http://www.w3.org/2000/svg"
 width="459.000000pt" height="344.000000pt" viewBox="0 0 459.000000 344.000000"
 preserveAspectRatio="xMidYMid meet">

<g transform="translate(0.000000,344.000000) scale(0.100000,-0.100000)"
fill="#000000" stroke="none">
<path d="M2040 3164 c-52 -8 -150 -33 -219 -56 -504 -164 -868 -565 -978
-1078 -28 -132 -25 -402 5 -539 121 -539 520 -944 1072 -1089 134 -35 136 -35
355 -36 178 -1 236 3 305 17 309 67 549 195 761 406 210 211 333 434 389 711
66 322 11 662 -151 945 -209 363 -558 614 -989 710 -108 24 -424 29 -550 9z
m545 -24 c215 -45 433 -142 596 -265 105 -78 258 -237 322 -333 114 -170 193
-364 222 -545 32 -200 14 -453 -46 -642 -65 -206 -174 -381 -344 -551 -221
-222 -469 -352 -780 -410 -133 -25 -400 -26 -532 -1 -599 111 -1059 559 -1168
1137 -25 128 -25 352 0 480 97 517 480 937 995 1093 100 30 154 42 295 61 76
11 344 -4 440 -24z"/>
<path d="M2320 3002 c-31 -25 -40 -111 -16 -147 25 -38 80 -35 101 5 24 46 20
106 -10 135 -29 30 -45 31 -75 7z m58 -68 c3 -42 -17 -82 -36 -70 -16 9 -15
89 0 104 20 20 33 8 36 -34z"/>
<path d="M2117 3003 c-12 -12 -7 -33 7 -33 10 0 16 -20 21 -75 6 -63 10 -75
24 -73 13 3 15 16 13 81 -3 51 0 77 7 77 6 0 11 7 11 15 0 11 -11 15 -38 15
-21 0 -42 -3 -45 -7z"/>
<path d="M2230 2920 c0 -83 1 -90 20 -90 18 0 20 7 20 74 0 83 -6 106 -26 106
-11 0 -14 -20 -14 -90z"/>
<path d="M2451 2948 c-25 -127 -25 -128 -3 -128 15 0 21 9 27 43 l8 42 11 -42
c11 -44 31 -71 42 -60 9 8 33 126 34 160 0 41 -34 33 -38 -8 -6 -49 -19 -50
-26 -1 -6 36 -11 46 -26 46 -14 0 -21 -12 -29 -52z"/>
<path d="M2020 2948 c0 -24 -3 -67 -6 -95 -6 -49 -5 -53 15 -53 14 0 21 6 21
20 0 23 27 27 44 6 6 -8 18 -11 27 -7 25 9 -51 171 -81 171 -17 0 -20 -6 -20
-42z m49 -70 c1 -5 -3 -8 -9 -8 -5 0 -10 12 -9 28 0 24 1 25 9 7 5 -11 9 -23
9 -27z"/>
<path d="M1877 2948 c-16 -6 -26 -15 -23 -23 2 -7 14 -44 26 -83 22 -75 29
-85 48 -73 10 6 10 15 2 35 -15 42 -12 43 18 8 20 -24 31 -30 42 -23 12 9 11
14 -7 39 -13 18 -21 42 -20 66 1 27 -5 42 -18 52 -22 16 -29 16 -68 2z m51
-52 c3 -12 -1 -17 -10 -14 -7 3 -15 13 -16 22 -3 12 1 17 10 14 7 -3 15 -13
16 -22z"/>
<path d="M2688 2929 c-10 -5 -18 -21 -18 -35 0 -13 -7 -27 -16 -31 -8 -3 -20
-17 -25 -31 -13 -33 12 -72 46 -72 13 0 27 -4 30 -10 10 -16 19 -11 33 17 16
35 15 43 -3 43 -28 0 -29 29 -1 51 32 25 33 43 4 63 -26 19 -27 19 -50 5z m24
-41 c-7 -7 -12 -8 -12 -2 0 6 3 14 7 17 3 4 9 5 12 2 2 -3 -1 -11 -7 -17z
m-32 -80 c0 -16 -3 -19 -11 -11 -6 6 -8 16 -5 22 11 17 16 13 16 -11z"/>
<path d="M1754 2902 c-42 -28 -33 -104 17 -154 29 -30 54 -31 87 -6 16 14 15
69 -1 92 -11 15 -17 17 -35 7 -28 -15 -28 -37 -1 -44 22 -6 22 -32 -1 -32 -18
0 -49 45 -52 75 -2 19 2 25 17 25 11 0 26 4 34 9 12 8 11 11 -4 23 -21 14 -44
17 -61 5z"/>
<path d="M1647 2843 c-6 -10 82 -163 94 -163 23 0 17 32 -19 96 -36 64 -63 87
-75 67z"/>
<path d="M2867 2820 c-49 -39 -56 -114 -13 -149 29 -25 49 8 21 36 -31 31 12
98 56 89 30 -6 45 14 26 33 -17 17 -62 13 -90 -9z"/>
<path d="M1571 2796 c-10 -11 -8 -24 10 -58 l21 -43 -34 33 c-37 35 -50 39
-66 19 -8 -9 1 -33 35 -90 25 -42 49 -77 54 -77 22 0 19 34 -6 73 l-28 42 42
-40 c32 -30 44 -36 53 -27 9 9 7 23 -10 59 l-23 48 34 -39 c25 -29 38 -38 52
-32 20 7 18 10 -69 104 -44 47 -48 48 -65 28z"/>
<path d="M2942 2726 c-45 -64 -50 -76 -37 -86 9 -7 17 -11 18 -9 62 84 98 143
93 155 -10 25 -21 16 -74 -60z"/>
<path d="M3036 2751 c-4 -5 -4 -16 -1 -23 3 -8 -13 -38 -36 -67 -36 -45 -40
-54 -28 -67 13 -12 20 -6 58 42 25 32 49 53 56 50 8 -3 18 1 25 8 8 11 3 20
-20 40 -34 28 -45 31 -54 17z"/>
<path d="M1416 2671 c-15 -16 -15 -19 -1 -31 9 -7 21 -23 27 -34 11 -20 11
-20 -13 -3 -38 27 -48 30 -64 17 -8 -7 -15 -15 -15 -19 0 -4 25 -37 56 -75 52
-61 58 -66 72 -52 15 14 13 19 -18 52 -35 37 -28 37 23 0 20 -14 30 -17 38 -9
8 8 2 24 -21 60 l-33 48 29 -26 c55 -48 60 -51 73 -35 9 11 -2 25 -57 70 -38
31 -71 56 -74 56 -3 0 -12 -8 -22 -19z"/>
<path d="M3082 2627 c-64 -64 -72 -81 -48 -90 9 -4 37 20 75 63 47 53 58 70
48 79 -10 8 -28 -5 -75 -52z"/>
<path d="M2127 2650 c-291 -49 -550 -246 -669 -508 -52 -115 -70 -203 -72
-351 l-2 -134 -53 -19 c-30 -12 -49 -24 -44 -29 5 -5 60 -46 122 -91 63 -46
113 -87 112 -93 -1 -6 -45 -9 -114 -8 -105 2 -177 -9 -177 -26 0 -4 -23 -22
-50 -40 -55 -36 -74 -62 -65 -90 3 -12 0 -21 -10 -25 -26 -10 -17 -49 18 -77
40 -32 77 -40 190 -42 96 -2 117 -14 117 -64 0 -13 4 -23 9 -23 5 0 31 -22 57
-50 39 -40 54 -50 81 -50 31 0 33 -2 33 -34 0 -26 10 -45 41 -80 22 -25 49
-48 60 -51 11 -4 61 -8 112 -10 51 -2 104 -7 119 -11 14 -3 43 -1 63 6 31 10
39 10 54 -4 10 -9 25 -16 34 -16 15 0 68 -47 84 -74 8 -14 112 -66 131 -66 40
0 69 84 38 109 -15 12 -16 47 -2 69 10 16 36 15 36 -1 0 -30 141 -50 172 -24
8 6 25 26 37 44 20 30 26 32 79 33 31 1 69 1 84 2 18 1 37 -10 61 -36 28 -29
42 -36 73 -36 22 0 46 -4 54 -10 9 -5 19 -5 27 2 9 7 39 9 82 5 47 -4 86 -1
123 9 29 9 67 19 83 23 38 9 46 48 15 76 -11 10 -20 23 -20 30 0 7 -9 20 -19
29 -11 10 -22 29 -26 44 -3 14 -17 39 -31 55 -13 16 -24 39 -24 53 0 19 -5 24
-24 24 -14 0 -28 5 -31 10 -3 6 -22 10 -42 10 -20 0 -45 7 -54 16 -10 9 -30
16 -45 17 -25 0 -25 0 16 42 29 29 40 47 34 56 -6 10 -10 7 -14 -11 -4 -17
-13 -25 -28 -24 -16 0 -19 -3 -11 -12 6 -8 7 -14 0 -18 -5 -4 -12 -2 -15 3 -3
5 -15 7 -26 4 -11 -3 -17 -9 -15 -14 3 -4 13 -5 23 -2 14 5 15 3 5 -7 -10 -11
-16 -11 -31 3 -10 9 -29 17 -41 17 -12 0 -32 7 -46 16 -13 8 -29 14 -37 13
-25 -5 -60 13 -99 52 -42 42 -63 48 -89 24 -19 -17 -30 -19 -134 -17 -66 2
-77 4 -67 16 10 12 6 14 -26 10 -103 -10 -132 -11 -128 -4 3 4 -15 11 -40 14
-73 11 -180 71 -249 140 -72 72 -112 147 -138 261 -17 77 -17 78 -13 23 10
-118 70 -235 161 -316 57 -51 154 -104 214 -117 20 -5 28 -10 20 -13 -8 -2
-30 -11 -48 -19 -22 -11 -36 -12 -45 -5 -6 5 -26 13 -42 16 -17 4 -54 24 -83
46 -28 22 -52 37 -52 34 0 -4 -18 16 -40 43 -39 49 -39 50 -133 67 -57 11
-107 15 -127 11 -26 -6 -32 -4 -28 6 18 48 78 272 74 276 -3 3 -24 -2 -48 -12
-24 -9 -49 -19 -55 -22 -10 -4 -13 16 -13 79 0 262 159 509 405 628 125 61
189 75 345 75 126 -1 141 -3 229 -33 107 -37 183 -80 271 -154 34 -28 64 -48
67 -44 4 3 1 6 -5 6 -7 0 -12 7 -12 16 0 9 5 12 13 8 6 -4 4 2 -5 13 -19 21
-24 38 -8 28 5 -3 3 7 -5 22 -15 29 -21 66 -7 48 4 -5 18 -10 32 -11 14 0 39
-5 55 -9 26 -7 20 0 -35 48 -120 103 -287 182 -440 206 -75 12 -242 12 -313 1z
m-402 -1220 c3 -5 15 -6 28 -3 17 4 19 3 7 -6 -11 -8 -6 -9 20 -5 39 5 87 -15
82 -35 -1 -7 2 -10 7 -7 5 3 16 -6 26 -20 9 -14 19 -23 22 -20 10 9 33 -15 26
-27 -3 -6 -1 -7 5 -3 7 4 22 0 34 -8 22 -16 22 -16 -17 -18 -22 0 -47 0 -55 1
-8 1 -52 1 -97 1 -72 0 -83 2 -84 17 -1 17 -2 17 -6 0 -2 -9 -9 -15 -14 -12
-5 4 -6 -8 -1 -27 4 -18 7 -115 7 -216 0 -158 2 -181 15 -176 8 3 39 6 68 6
l52 0 1 77 c0 42 3 70 6 64 2 -7 9 -13 14 -13 6 0 8 4 5 9 -4 5 8 13 26 16 18
4 36 12 39 17 3 5 7 -24 8 -66 1 -47 -2 -76 -9 -76 -5 0 -10 -5 -10 -11 0 -5
5 -7 10 -4 6 3 10 2 10 -4 0 -8 90 -9 142 -2 4 1 5 9 2 19 -4 10 -3 13 3 6 4
-6 17 -16 28 -22 15 -8 16 -12 5 -12 -8 -1 1 -7 20 -14 37 -13 115 -5 135 15
7 7 1 7 -18 0 -16 -6 -49 -10 -75 -10 -45 2 -44 2 15 9 34 4 70 13 80 21 9 8
14 9 10 2 -5 -7 9 -17 38 -27 25 -8 43 -11 40 -5 -4 5 0 10 7 11 7 0 20 2 28
3 8 1 19 -1 23 -3 7 -4 93 -5 137 -3 6 1 10 10 10 22 0 11 5 29 10 40 8 14 8
19 -2 17 -23 -5 -44 161 -27 222 2 8 -1 14 -7 13 -7 -1 -14 12 -18 29 -7 34 6
50 32 40 10 -3 13 -1 8 6 -5 9 0 9 21 0 15 -7 32 -18 36 -25 4 -7 14 -13 22
-13 7 0 16 -9 20 -19 4 -13 19 -21 52 -26 58 -8 93 -24 93 -42 0 -7 5 -13 11
-13 5 0 7 5 4 10 -3 6 3 10 14 10 12 0 21 -7 21 -15 0 -8 3 -14 8 -14 4 1 18
1 32 0 20 -1 22 -3 10 -11 -21 -14 5 -13 31 0 16 9 21 7 28 -12 5 -13 6 -27 3
-32 -3 -5 0 -6 7 -2 7 5 10 14 7 21 -3 10 4 11 32 4 20 -4 39 -6 43 -3 5 2 13
-5 19 -16 6 -11 8 -20 4 -20 -4 0 1 -9 11 -20 10 -11 20 -18 23 -16 11 11 44
-33 38 -52 -4 -11 0 -24 9 -32 8 -7 12 -16 9 -21 -3 -5 0 -8 7 -7 9 2 14 -8
14 -27 1 -21 6 -29 16 -27 9 1 16 -5 16 -13 0 -9 -7 -15 -16 -14 -35 3 -52 -1
-45 -12 4 -7 -1 -7 -16 1 -20 11 -22 10 -17 -4 6 -14 3 -15 -13 -6 -16 8 -20
8 -20 -4 0 -10 -6 -13 -16 -9 -12 4 -13 8 -3 14 15 9 -59 1 -108 -11 -18 -5
-33 -5 -33 0 0 5 8 11 18 13 11 3 11 3 -3 2 -11 -1 -29 -6 -39 -10 -15 -7 -17
-5 -11 5 6 10 4 12 -8 7 -10 -4 -17 -1 -18 6 0 9 -2 9 -6 0 -2 -7 -11 -13 -19
-13 -9 0 -13 4 -10 9 3 5 -4 11 -15 14 -15 4 -20 11 -16 21 5 12 -1 16 -23 16
-17 0 -30 4 -30 9 0 5 -10 7 -22 4 -21 -4 -22 -3 -4 7 15 10 16 14 5 21 -8 5
-23 8 -34 8 -16 -1 -16 -2 5 -9 22 -7 21 -8 -12 -9 -20 -1 -49 4 -63 9 -23 9
-25 13 -15 25 10 12 9 15 -4 15 -10 0 -15 -4 -12 -9 3 -5 0 -14 -7 -20 -8 -6
-20 -29 -27 -51 -7 -23 -18 -44 -23 -47 -6 -4 -7 -1 -2 7 6 9 4 11 -4 6 -7 -5
-10 -14 -7 -22 3 -8 0 -13 -7 -11 -7 1 -11 -4 -9 -12 2 -10 -4 -12 -20 -7 -13
3 -33 6 -46 6 -13 0 -21 4 -17 9 3 5 1 12 -5 16 -6 4 -8 10 -5 15 3 4 -2 13
-10 20 -18 15 -69 5 -59 -12 5 -7 0 -9 -14 -6 -12 4 -22 2 -22 -3 0 -5 -6 -8
-12 -6 -8 1 -12 -6 -10 -17 2 -10 -1 -15 -6 -12 -6 3 -8 -2 -6 -11 3 -10 -2
-27 -11 -38 -9 -11 -14 -14 -10 -8 4 9 1 11 -9 7 -9 -3 -13 -10 -10 -15 3 -5
-5 -9 -18 -9 -19 -1 -17 -3 12 -16 19 -8 43 -13 53 -10 15 4 16 2 6 -10 -8
-10 -8 -14 0 -14 20 0 12 -16 -9 -17 -13 -1 -18 2 -14 9 5 8 1 9 -10 5 -23 -9
-43 3 -25 15 10 6 6 7 -11 4 -20 -4 -31 3 -55 31 -16 21 -25 34 -20 31 6 -4
12 2 12 14 2 16 -2 19 -23 14 -19 -5 -30 0 -49 21 -13 16 -25 24 -25 18 0 -5
-21 -9 -47 -8 -27 0 -54 -4 -62 -10 -12 -10 -13 -9 -6 3 7 13 6 13 -7 2 -13
-10 -16 -9 -21 8 -3 11 -11 20 -19 20 -10 0 -9 -3 2 -10 13 -9 13 -10 0 -10
-9 0 -21 5 -28 12 -9 9 -12 9 -12 1 0 -17 -166 -11 -182 6 -7 7 -8 12 -3 11
21 -4 35 0 35 11 0 7 -10 9 -24 5 -14 -3 -28 -2 -31 4 -4 6 1 7 11 3 12 -4 15
-3 10 5 -4 7 -14 12 -22 12 -9 0 -12 5 -8 12 5 7 2 9 -8 5 -11 -4 -16 1 -16
16 1 62 -6 75 -39 82 -18 3 -33 11 -33 18 0 7 -4 6 -10 -3 -7 -11 -5 -17 8
-22 16 -6 16 -7 0 -7 -16 -1 -58 47 -58 67 0 5 -11 13 -25 16 -14 4 -25 11
-25 17 0 8 4 8 13 1 9 -8 12 -4 13 14 1 13 -2 24 -7 24 -5 0 -9 -6 -9 -12 -1
-7 -7 -1 -16 14 -19 35 -50 52 -94 50 l-35 -1 33 8 c48 12 53 23 8 15 -27 -4
-41 -2 -47 8 -7 11 -9 11 -9 -1 0 -8 -6 -11 -16 -7 -9 3 -12 2 -9 -5 4 -6 14
-8 24 -4 11 4 13 3 5 -5 -14 -14 -50 -16 -93 -6 -26 6 -30 10 -20 18 10 7 6 8
-13 4 -21 -5 -28 -2 -33 14 -3 11 -11 20 -16 20 -5 0 -4 6 3 14 7 8 16 12 20
10 4 -2 9 0 13 6 3 5 -1 10 -9 10 -25 0 -20 47 5 53 20 5 20 5 2 -16 -12 -14
-13 -18 -2 -9 9 6 20 8 24 4 5 -4 5 -2 2 5 -9 15 21 45 35 37 6 -4 8 -3 5 2
-7 12 1 23 27 44 18 13 19 13 11 0 -7 -13 -6 -13 7 -2 11 9 18 10 23 2 3 -6
11 -8 16 -5 5 4 9 0 9 -7 0 -10 2 -10 9 1 5 8 16 11 26 8 9 -4 14 -3 10 3 -4
6 14 10 44 10 29 0 51 -5 51 -11 0 -5 5 -7 10 -4 6 4 7 11 4 17 -4 7 -2 8 5 4
6 -4 9 -11 6 -15 -2 -5 10 -8 29 -7 25 1 32 5 28 17 -2 10 1 27 8 38 10 20 19
22 86 20 41 -1 77 -5 79 -9z m629 -178 c-10 -41 -23 -69 -23 -53 -1 8 -17 29
-36 46 l-35 32 50 2 c50 1 50 0 44 -27z m-112 8 c49 -14 68 -43 68 -103 l0
-48 -47 3 -48 3 -3 43 c-2 23 -7 42 -13 42 -5 0 -9 -53 -9 -125 0 -77 4 -125
10 -125 6 0 10 23 10 50 l0 50 50 0 50 0 0 -51 c0 -43 -5 -55 -29 -80 -24 -24
-38 -29 -76 -29 -49 0 -82 13 -102 39 -16 21 -17 254 -2 284 13 24 32 38 64
49 29 9 36 9 77 -2z m-318 -21 c23 -18 26 -27 26 -87 0 -37 -4 -72 -8 -78 -12
-19 -49 -34 -81 -34 l-31 0 0 -75 0 -75 -45 0 -45 0 0 185 0 185 79 0 c64 0
83 -4 105 -21z m144 -161 l-3 -183 -47 -3 -48 -3 0 185 0 186 50 0 50 0 -2
-182z m442 173 c0 -5 11 -86 25 -181 14 -95 25 -174 25 -176 0 -3 -21 -4 -47
-2 -46 3 -48 4 -51 36 -2 23 -8 32 -22 32 -14 0 -20 -9 -22 -32 -3 -30 -6 -33
-42 -36 -21 -2 -42 0 -47 5 -5 5 0 78 12 163 29 223 17 200 99 200 39 0 70 -4
70 -9z m43 -86 c-3 -9 -8 -14 -10 -11 -3 3 -2 9 2 15 9 16 15 13 8 -4z m-234
-85 c-16 -9 -104 -8 -114 2 -3 3 25 6 62 6 47 1 63 -1 52 -8z m101 -260 c0 -5
-7 -7 -15 -4 -8 4 -15 8 -15 10 0 2 7 4 15 4 8 0 15 -4 15 -10z m-315 -50 c3
-5 1 -10 -4 -10 -6 0 -11 5 -11 10 0 6 2 10 4 10 3 0 8 -4 11 -10z"/>
<path d="M1578 1423 c7 -3 16 -2 19 1 4 3 -2 6 -13 5 -11 0 -14 -3 -6 -6z"/>
<path d="M1774 1298 c-3 -4 11 -8 30 -8 20 0 36 2 36 4 0 8 -61 12 -66 4z"/>
<path d="M2592 1130 c0 -14 2 -19 5 -12 2 6 2 18 0 25 -3 6 -5 1 -5 -13z"/>
<path d="M2790 1129 c0 -5 5 -7 10 -4 6 3 10 8 10 11 0 2 -4 4 -10 4 -5 0 -10
-5 -10 -11z"/>
<path d="M2582 1020 c0 -68 1 -69 17 -7 5 20 6 35 1 32 -5 -3 -11 5 -13 17 -2
13 -5 -6 -5 -42z"/>
<path d="M1520 1040 c0 -5 5 -10 11 -10 5 0 7 5 4 10 -3 6 -8 10 -11 10 -2 0
-4 -4 -4 -10z"/>
<path d="M1931 984 c0 -11 3 -14 6 -6 3 7 2 16 -1 19 -3 4 -6 -2 -5 -13z"/>
<path d="M1860 940 c0 -21 4 -41 9 -44 5 -4 7 12 4 35 -6 39 -5 41 16 34 11
-3 21 -3 21 2 0 5 -11 10 -25 11 -23 2 -25 -2 -25 -38z"/>
<path d="M1931 944 c0 -11 3 -14 6 -6 3 7 2 16 -1 19 -3 4 -6 -2 -5 -13z"/>
<path d="M1655 930 c-3 -5 -1 -10 4 -10 6 0 11 5 11 10 0 6 -2 10 -4 10 -3 0
-8 -4 -11 -10z"/>
<path d="M1691 924 c0 -11 3 -14 6 -6 3 7 2 16 -1 19 -3 4 -6 -2 -5 -13z"/>
<path d="M1685 880 c3 -5 8 -10 11 -10 2 0 4 5 4 10 0 6 -5 10 -11 10 -5 0 -7
-4 -4 -10z"/>
<path d="M2289 823 c-13 -16 -12 -17 4 -4 9 7 17 15 17 17 0 8 -8 3 -21 -13z"/>
<path d="M1836 1193 c-3 -4 -6 -24 -6 -45 0 -31 3 -38 20 -38 17 0 20 7 20 39
0 36 -18 59 -34 44z"/>
<path d="M2430 1098 c0 -32 0 -61 -1 -65 0 -4 4 -9 10 -11 14 -5 15 97 1 118
-7 11 -10 -2 -10 -42z"/>
<path d="M3181 2627 c-9 -11 -8 -17 4 -27 8 -7 15 -15 15 -19 0 -4 -31 -18
-70 -31 -38 -13 -70 -27 -70 -30 0 -3 16 -23 34 -45 26 -30 37 -37 46 -29 9 9
8 18 -4 36 l-16 24 68 24 c37 12 70 26 74 29 5 4 -9 24 -30 44 -32 32 -41 36
-51 24z"/>
<path d="M1297 2547 c-6 -17 128 -131 143 -122 20 12 8 31 -49 77 -69 56 -86
64 -94 45z"/>
<path d="M3215 2484 c-38 -30 -69 -60 -67 -67 2 -7 12 -21 23 -32 14 -15 22
-16 30 -8 9 9 9 16 0 27 -10 12 -9 17 8 25 14 8 20 8 23 -1 7 -20 37 -1 31 20
-6 25 13 38 33 21 11 -9 18 -9 26 -1 7 7 4 19 -11 41 -13 17 -23 31 -24 30 -1
0 -33 -25 -72 -55z"/>
<path d="M3280 2404 c-91 -56 -84 -50 -76 -70 5 -14 10 -14 42 5 48 28 51 27
20 -13 -53 -70 -27 -79 69 -25 79 45 80 46 66 67 -6 10 -16 8 -46 -10 -40 -23
-40 -19 -2 33 13 19 16 32 10 43 -7 14 -19 9 -83 -30z"/>
<path d="M1180 2378 c-18 -32 -20 -42 -9 -49 7 -4 19 -4 25 2 8 7 31 -2 74
-27 48 -28 64 -33 71 -23 11 18 6 24 -56 59 -35 20 -55 38 -55 50 0 35 -27 29
-50 -12z"/>
<path d="M2511 2384 c-12 -15 -21 -32 -21 -39 0 -7 9 -24 21 -39 38 -48 119
-22 119 39 0 61 -81 87 -119 39z"/>
<path d="M2968 2383 c12 -2 20 -8 17 -13 -3 -4 5 -6 17 -2 16 4 19 2 13 -9 -6
-10 -5 -11 4 -3 13 12 61 7 61 -6 0 -5 10 -5 23 -2 16 5 5 10 -48 23 -38 10
-79 17 -90 17 -17 -1 -16 -1 3 -5z"/>
<path d="M1347 2374 c-14 -14 -7 -41 17 -63 13 -12 26 -18 29 -14 8 12 -37 86
-46 77z"/>
<path d="M2880 2369 c0 -4 15 -9 34 -11 19 -2 33 -1 30 3 -5 9 -64 17 -64 8z"/>
<path d="M2860 2340 c0 -5 5 -10 11 -10 5 0 7 5 4 10 -3 6 -8 10 -11 10 -2 0
-4 -4 -4 -10z"/>
<path d="M3115 2341 c-11 -4 -20 -17 -20 -27 0 -13 -7 -19 -22 -18 -13 0 -23
-3 -23 -8 0 -20 39 -5 70 27 34 35 33 41 -5 26z"/>
<path d="M2310 2290 c-24 -24 -25 -38 -4 -68 29 -42 104 -17 104 35 0 20 -38
53 -60 53 -11 0 -29 -9 -40 -20z"/>
<path d="M1138 2283 c-46 -53 -43 -58 42 -97 44 -20 84 -36 89 -36 23 0 15 27
-13 42 l-31 17 37 1 c61 0 60 39 -1 40 -13 0 -34 11 -47 25 -27 29 -55 32 -76
8z m52 -38 c10 -13 9 -15 -8 -15 -22 0 -36 13 -25 24 10 10 20 7 33 -9z"/>
<path d="M3368 2283 c-8 -10 -18 -30 -22 -45 -7 -32 -35 -38 -43 -9 -6 24 -33
17 -33 -9 0 -20 30 -50 51 -50 26 0 56 29 62 60 7 33 30 40 46 13 8 -14 12
-15 22 -6 10 10 10 18 1 38 -14 30 -61 35 -84 8z"/>
<path d="M2514 2255 c-40 -21 -54 -52 -54 -124 0 -64 15 -87 49 -76 20 6 22 2
36 -92 l6 -41 -58 -5 c-32 -3 -84 -6 -115 -7 -33 -1 -58 -7 -58 -12 0 -14 207
-3 225 12 10 8 13 6 11 -7 0 -10 5 -17 12 -15 6 1 12 -3 12 -8 0 -5 -4 -10
-10 -10 -5 0 -10 -5 -10 -12 0 -6 3 -8 8 -4 4 4 13 -9 19 -31 13 -38 13 -38 7
17 -4 30 -11 58 -16 61 -5 3 -13 22 -18 42 -4 22 -4 35 1 31 5 -3 9 -15 9 -26
0 -12 3 -19 6 -15 8 8 -6 68 -14 63 -4 -2 -7 15 -7 37 0 41 1 42 53 61 52 18
52 19 52 62 0 81 -77 133 -146 99z"/>
<path d="M3070 2247 c5 -15 19 -38 31 -50 l21 -22 -15 30 c-9 17 -23 39 -31
50 -15 19 -16 19 -6 -8z"/>
<path d="M2857 2215 c3 -27 7 -52 9 -54 7 -8 2 54 -6 79 -6 17 -7 9 -3 -25z"/>
<path d="M2115 2186 c-32 -48 32 -100 75 -61 24 22 26 48 4 69 -23 24 -61 20
-79 -8z"/>
<path d="M3390 2172 c-48 -17 -75 -32 -75 -42 0 -15 18 -17 60 -9 12 3 21 -2
23 -13 2 -11 -6 -18 -27 -23 -36 -8 -43 -16 -32 -34 7 -11 25 -8 90 14 85 28
94 34 82 53 -5 8 -16 9 -39 3 -21 -7 -34 -6 -38 1 -8 12 22 38 44 38 15 0 13
32 -3 36 -5 1 -44 -9 -85 -24z"/>
<path d="M2300 2162 c-34 -28 -40 -117 -11 -154 l22 -27 62 23 62 23 3 53 c3
43 -1 57 -19 76 -28 30 -86 32 -119 6z"/>
<path d="M1088 2153 c-26 -31 -29 -41 -17 -67 22 -48 129 -75 163 -40 35 34
14 85 -44 108 -52 21 -83 20 -102 -1z m109 -49 c33 -21 18 -37 -30 -31 -44 6
-73 28 -62 47 9 15 59 6 92 -16z"/>
<path d="M3120 2164 c0 -6 7 -19 16 -30 14 -18 14 -18 3 6 -14 31 -19 36 -19
24z"/>
<path d="M3000 2151 c0 -5 7 -12 16 -15 14 -5 15 -4 4 9 -14 17 -20 19 -20 6z"/>
<path d="M2872 2130 c-3 -48 12 -52 49 -12 29 32 30 33 3 9 -38 -34 -42 -34
-47 1 -4 26 -4 26 -5 2z"/>
<path d="M2980 2144 c0 -5 7 -18 15 -28 8 -11 15 -16 15 -10 0 5 -7 18 -15 28
-8 11 -15 16 -15 10z"/>
<path d="M1935 2096 c-13 -19 -14 -29 -6 -45 22 -40 82 -35 96 9 17 54 -58 85
-90 36z"/>
<path d="M2706 2073 c150 -196 137 -447 -34 -625 -30 -32 -53 -60 -50 -63 9
-10 116 112 141 161 75 148 77 317 5 459 -25 48 -76 115 -89 115 -5 0 7 -21
27 -47z"/>
<path d="M2112 2077 c-31 -33 -31 -125 -1 -153 19 -17 19 -19 2 -25 -10 -4 21
-8 69 -8 48 -1 90 3 93 9 4 6 -15 9 -50 9 -71 -2 -80 7 -27 28 42 16 42 16 42
69 0 45 -4 56 -26 73 -35 28 -75 27 -102 -2z"/>
<path d="M3040 2079 c0 -5 5 -7 10 -4 6 3 10 8 10 11 0 2 -4 4 -10 4 -5 0 -10
-5 -10 -11z"/>
<path d="M3160 2075 c0 -5 10 -39 21 -75 16 -49 21 -94 22 -185 1 -66 -1 -132
-4 -148 -4 -15 -3 -30 1 -32 13 -8 23 140 16 224 -7 77 -30 183 -47 211 -4 8
-8 11 -9 5z"/>
<path d="M3433 2038 c-68 -16 -83 -23 -83 -39 0 -23 -7 -23 95 2 69 17 85 25
85 40 0 22 6 23 -97 -3z"/>
<path d="M1046 2008 c-8 -13 -16 -34 -18 -47 -3 -23 2 -25 82 -42 106 -23 100
-23 100 1 0 14 -9 21 -35 26 -28 5 -35 11 -35 29 0 50 -68 73 -94 33z m59 -29
c10 -15 -1 -22 -24 -14 -12 3 -19 11 -16 16 8 12 32 11 40 -2z"/>
<path d="M1942 1994 c-18 -13 -22 -25 -22 -73 0 -67 15 -89 49 -72 29 16 51
13 51 -5 0 -14 3 -14 15 -4 13 11 15 8 15 -17 0 -16 -4 -33 -10 -39 -6 -6 -4
-10 8 -11 9 0 42 -4 72 -7 39 -5 51 -4 40 3 -9 7 -10 11 -3 11 6 0 15 -4 18
-10 3 -5 30 -10 58 -9 41 1 47 3 27 9 -23 7 -24 8 -3 9 12 1 26 8 31 17 8 14
10 14 21 0 8 -10 29 -16 51 -16 22 0 40 -5 43 -12 3 -10 8 -9 22 2 11 9 16 10
11 3 -8 -14 6 -18 18 -6 4 4 27 6 52 4 31 -2 44 1 40 8 -5 7 -48 11 -114 11
l-108 0 -17 29 c-12 21 -14 30 -5 33 14 5 4 38 -12 38 -5 0 -10 -22 -10 -50
l0 -50 -94 0 c-52 0 -101 -3 -110 -6 -14 -5 -16 6 -16 88 0 86 -2 97 -23 116
-27 26 -64 28 -95 6z"/>
<path d="M1797 1994 c-15 -15 -7 -53 13 -59 27 -8 52 12 48 39 -3 21 -46 35
-61 20z"/>
<path d="M3057 1955 c7 -49 10 -55 30 -55 10 0 13 6 9 16 -3 9 -6 19 -7 22 0
4 -4 -2 -9 -13 -8 -19 -9 -19 -9 3 -1 13 4 33 11 45 10 19 9 20 -4 9 -13 -10
-17 -10 -22 0 -3 7 -3 -5 1 -27z"/>
<path d="M3515 1985 c-5 -2 -43 -9 -83 -15 -59 -10 -72 -15 -70 -28 3 -13 12
-16 39 -14 29 3 39 -1 53 -22 11 -18 25 -26 45 -26 38 0 53 20 49 66 -3 36
-12 46 -33 39z m5 -55 c0 -5 -9 -10 -20 -10 -11 0 -20 5 -20 10 0 6 9 10 20
10 11 0 20 -4 20 -10z"/>
<path d="M2290 1946 c0 -14 5 -28 10 -31 6 -4 10 7 10 24 0 17 -4 31 -10 31
-5 0 -10 -11 -10 -24z"/>
<path d="M2625 1920 l-40 -7 35 0 c19 -1 49 3 65 7 27 7 27 8 5 7 -14 0 -43
-3 -65 -7z"/>
<path d="M1786 1898 c-20 -28 -20 -68 -2 -93 14 -19 16 -19 58 -4 35 13 44 21
46 43 8 65 -67 104 -102 54z"/>
<path d="M1017 1883 c-12 -11 -7 -41 9 -57 22 -22 64 -20 90 5 28 26 55 19 47
-11 -5 -18 -2 -21 13 -18 26 5 32 58 8 75 -27 20 -60 16 -90 -12 -29 -27 -49
-24 -41 6 4 13 0 19 -12 19 -10 0 -21 -3 -24 -7z"/>
<path d="M3072 1860 c0 -19 2 -27 5 -17 2 9 2 25 0 35 -3 9 -5 1 -5 -18z"/>
<path d="M2561 1824 c0 -11 3 -14 6 -6 3 7 2 16 -1 19 -3 4 -6 -2 -5 -13z"/>
<path d="M2012 1811 c4 -13 18 -16 19 -4 0 4 -5 9 -11 12 -7 2 -11 -2 -8 -8z"/>
<path d="M3070 1747 c0 -40 -7 -99 -15 -130 -8 -32 -15 -61 -15 -65 1 -16 30
62 30 80 0 10 3 17 8 15 4 -3 8 35 9 84 2 54 -1 89 -7 89 -6 0 -10 -31 -10
-73z"/>
<path d="M3380 1781 c0 -12 7 -21 15 -21 20 0 19 -30 -2 -45 -9 -7 -14 -19
-10 -28 5 -13 16 -13 94 7 71 18 89 26 91 42 2 17 -8 23 -75 38 -43 10 -86 20
-95 22 -13 4 -18 0 -18 -15z m105 -41 c17 -7 14 -9 -13 -9 -20 -1 -31 3 -27 9
7 12 13 12 40 0z"/>
<path d="M1090 1755 c-29 -31 -55 -33 -47 -5 4 15 0 20 -14 20 -14 0 -19 -7
-19 -30 0 -52 64 -68 98 -25 24 31 52 33 52 4 0 -28 34 -21 38 7 8 53 -67 72
-108 29z"/>
<path d="M1928 1773 c18 -2 45 -2 60 0 15 2 0 4 -33 4 -33 0 -45 -2 -27 -4z"/>
<path d="M2301 1745 c1 -22 3 -24 6 -8 3 16 13 23 36 25 l32 3 -37 6 c-37 5
-38 4 -37 -26z"/>
<path d="M2563 1765 c-3 -9 -3 -18 -1 -21 3 -3 8 4 11 16 6 23 -1 27 -10 5z"/>
<path d="M2597 1773 c-4 -3 -7 -20 -7 -36 0 -25 -2 -28 -15 -17 -12 10 -15 9
-15 -4 0 -10 5 -14 10 -11 6 3 10 0 10 -7 0 -9 3 -9 10 2 5 8 10 27 10 42 0
26 2 27 63 31 l62 3 -61 2 c-33 1 -64 -1 -67 -5z"/>
<path d="M2043 1753 c3 -5 7 -46 9 -93 3 -47 3 -73 1 -57 -3 15 -9 27 -14 27
-11 0 -4 -35 23 -107 19 -50 42 -75 31 -33 -3 11 -10 20 -15 20 -5 0 -7 4 -4
9 3 5 2 35 -2 68 l-8 58 105 -2 c89 -2 106 0 117 15 12 16 13 16 31 -1 16 -14
39 -17 121 -17 61 0 103 4 107 11 5 7 -13 10 -56 8 -35 -1 -73 2 -83 6 -15 7
-17 5 -11 -6 6 -11 5 -12 -6 -1 -7 6 -28 12 -45 12 -26 0 -34 5 -37 23 l-4 22
-8 -22 c-4 -13 -8 -23 -9 -24 0 0 -52 -3 -113 -6 l-113 -5 0 51 c0 29 -5 51
-11 51 -5 0 -8 -3 -6 -7z"/>
<path d="M2019 1704 c1 -24 6 -44 10 -44 8 0 1 79 -8 84 -3 2 -4 -16 -2 -40z"/>
<path d="M2281 1734 c0 -11 3 -14 6 -6 3 7 2 16 -1 19 -3 4 -6 -2 -5 -13z"/>
<path d="M3135 1679 c-4 -6 -5 -12 -2 -15 2 -3 7 2 10 11 7 17 1 20 -8 4z"/>
<path d="M1092 1651 c-40 -15 -73 -30 -73 -34 1 -4 1 -13 1 -21 0 -9 18 -16
53 -20 28 -4 71 -9 95 -12 35 -5 42 -4 42 11 0 9 -9 19 -20 22 -23 6 -27 38
-5 47 21 8 19 36 -2 35 -10 0 -51 -13 -91 -28z m48 -35 c0 -9 -9 -14 -20 -13
-25 2 -26 14 -2 20 9 3 18 5 20 6 1 0 2 -5 2 -13z"/>
<path d="M3393 1640 c-13 -11 -23 -30 -23 -40 0 -23 33 -60 54 -60 8 0 21 -3
29 -6 10 -3 17 4 21 22 8 32 -9 47 -35 31 -22 -13 -34 -4 -25 19 5 13 15 16
52 11 57 -6 77 -23 51 -42 -13 -9 -16 -18 -10 -29 14 -25 53 7 53 43 0 40 -31
64 -93 69 -43 3 -56 0 -74 -18z"/>
<path d="M1940 1640 l-35 -7 35 -1 c19 0 49 4 65 8 l30 8 -30 0 c-16 -1 -46
-4 -65 -8z"/>
<path d="M2618 1643 c12 -2 32 -2 45 0 12 2 2 4 -23 4 -25 0 -35 -2 -22 -4z"/>
<path d="M2298 1634 c-12 -12 -8 -116 5 -148 11 -26 19 -30 57 -32 29 -2 39 1
29 7 -11 7 -11 9 4 9 9 0 17 -4 17 -10 0 -12 97 -13 104 -1 6 9 -74 21 -151
21 l-52 0 -3 81 c-2 44 -6 77 -10 73z"/>
<path d="M2548 1617 c-4 -23 -2 -27 11 -23 14 5 14 4 -1 -7 -9 -8 -19 -34 -22
-62 -8 -61 7 -49 28 24 18 63 20 74 7 66 -5 -3 -11 3 -13 12 -3 13 -6 9 -10
-10z"/>
<path d="M2698 1633 c6 -2 18 -2 25 0 6 3 1 5 -13 5 -14 0 -19 -2 -12 -5z"/>
<path d="M3100 1619 c0 -11 4 -18 10 -14 5 3 7 12 3 20 -7 21 -13 19 -13 -6z"/>
<path d="M3181 1569 c-17 -67 -32 -100 -42 -94 -4 3 -5 -3 -2 -13 2 -11 -2
-26 -11 -34 -8 -9 -12 -18 -9 -22 4 -3 1 -6 -5 -6 -7 0 -11 -3 -10 -7 3 -14
-13 -53 -22 -53 -5 0 -11 6 -14 13 -3 6 -3 2 0 -10 5 -23 -20 -72 -34 -63 -4
3 -8 -6 -10 -20 -3 -20 3 -16 33 25 66 90 154 292 143 326 -2 6 -10 -13 -17
-42z"/>
<path d="M3131 1574 c0 -11 3 -14 6 -6 3 7 2 16 -1 19 -3 4 -6 -2 -5 -13z"/>
<path d="M3151 1534 c0 -11 3 -14 6 -6 3 7 2 16 -1 19 -3 4 -6 -2 -5 -13z"/>
<path d="M1046 1519 c-12 -18 -13 -71 -1 -87 2 -2 150 26 172 33 7 2 10 11 6
21 -4 12 -14 15 -39 11 -27 -5 -36 -1 -49 19 -20 31 -68 33 -89 3z m64 -28 c0
-5 -9 -11 -20 -14 -13 -3 -20 0 -20 9 0 8 9 14 20 14 11 0 20 -4 20 -9z"/>
<path d="M3026 1525 c-9 -26 -7 -32 5 -12 6 10 9 21 6 23 -2 3 -7 -2 -11 -11z"/>
<path d="M3356 1498 c-4 -20 -2 -34 6 -39 15 -9 28 -2 28 16 0 8 7 11 20 8 12
-3 19 -12 18 -21 -2 -9 5 -18 15 -20 11 -2 17 3 17 13 0 25 34 14 38 -13 2
-12 9 -22 17 -22 14 0 31 57 20 68 -6 6 -140 41 -161 42 -6 0 -14 -14 -18 -32z"/>
<path d="M3036 1493 c-6 -14 -5 -15 5 -6 7 7 10 15 7 18 -3 3 -9 -2 -12 -12z"/>
<path d="M2995 1460 c-9 -16 -13 -30 -11 -30 3 0 12 14 21 30 9 17 13 30 11
30 -3 0 -12 -13 -21 -30z"/>
<path d="M2148 1473 c-21 -2 -38 -8 -38 -14 0 -5 17 -9 38 -9 62 0 142 12 142
21 0 9 -68 9 -142 2z"/>
<path d="M3035 1460 c-3 -5 -1 -10 4 -10 6 0 11 5 11 10 0 6 -2 10 -4 10 -3 0
-8 -4 -11 -10z"/>
<path d="M1995 1450 c-20 -6 -9 -7 30 -3 60 5 60 5 78 -28 13 -26 16 -28 11
-9 -4 14 -11 31 -16 38 -11 13 -56 14 -103 2z"/>
<path d="M2522 1448 c-7 -7 -12 -16 -12 -22 0 -5 6 -2 13 7 6 9 30 18 52 20
l40 4 -40 1 c-23 1 -46 -3 -53 -10z"/>
<path d="M2303 1410 c0 -25 2 -35 4 -22 2 12 2 32 0 45 -2 12 -4 2 -4 -23z"/>
<path d="M2628 1443 c7 -3 16 -2 19 1 4 3 -2 6 -13 5 -11 0 -14 -3 -6 -6z"/>
<path d="M3005 1431 c-3 -5 -1 -12 5 -16 5 -3 10 1 10 9 0 18 -6 21 -15 7z"/>
<path d="M3337 1425 c-7 -17 -6 -18 48 -36 l40 -14 -55 -5 c-41 -4 -56 -9 -58
-22 -2 -13 16 -23 82 -44 47 -15 88 -25 92 -21 14 13 -6 35 -38 42 -29 7 -30
9 -13 16 11 4 32 8 46 8 27 1 46 25 29 36 -12 8 -151 55 -161 55 -4 0 -9 -7
-12 -15z"/>
<path d="M2966 1411 c-3 -5 1 -11 9 -14 9 -4 12 -1 8 9 -6 16 -10 17 -17 5z"/>
<path d="M2496 1393 c-6 -14 -5 -15 5 -6 7 7 10 15 7 18 -3 3 -9 -2 -12 -12z"/>
<path d="M2568 1364 c-20 -14 -67 -36 -105 -49 -37 -13 -59 -24 -48 -24 45 -1
195 68 195 90 0 12 1 12 -42 -17z"/>
<path d="M2945 1379 c-4 -6 -5 -12 -2 -15 2 -3 7 2 10 11 7 17 1 20 -8 4z"/>
<path d="M2874 1294 c-27 -30 -47 -54 -43 -54 4 0 5 -10 2 -21 -6 -20 -7 -21
-19 -5 -6 10 -14 13 -17 9 -3 -5 3 -14 13 -21 16 -10 21 -9 29 6 10 16 10 16
11 0 0 -11 7 -18 18 -17 10 0 12 3 5 6 -16 6 -17 34 -3 51 7 9 7 9 -2 2 -27
-23 -30 -8 -3 20 15 16 32 27 37 24 5 -3 7 0 6 7 -2 7 2 13 9 14 6 0 15 4 20
9 5 6 2 6 -6 1 -11 -6 -13 -4 -8 8 8 22 10 23 -49 -39z"/>
<path d="M3281 1266 c-23 -25 -21 -46 4 -46 7 0 15 7 19 15 8 22 62 19 87 -6
14 -14 19 -28 15 -44 -4 -15 -1 -25 8 -28 20 -8 26 2 26 44 0 77 -107 120
-159 65z"/>
<path d="M3226 1174 c-4 -9 -5 -18 -4 -19 2 -1 19 -11 39 -23 20 -12 48 -40
63 -62 26 -40 46 -45 46 -13 0 9 -7 24 -16 34 -14 16 -13 17 17 16 24 -2 34 3
37 16 3 14 -4 17 -40 17 -27 0 -59 9 -87 25 -51 30 -47 29 -55 9z"/>
</g>
</svg>
